<svg version="1.1" id="Layer_1" xmlns="http://www.w3.org/2000/svg" xmlns:xlink="http://www.w3.org/1999/xlink" x="0px" y="0px"
	 width="100%" viewBox="0 0 1024 1024" enable-background="new 0 0 1024 1024" xml:space="preserve">
<path fill="#000000" opacity="1.000000" stroke="none" 
	d="
M623.048523,863.249695 
	C599.899536,870.347717 576.712219,875.029236 552.997009,877.540283 
	C528.052124,880.181519 503.078552,880.467773 478.223053,878.146423 
	C403.563934,871.173645 337.290405,843.440796 279.514496,795.634155 
	C216.431442,743.436096 175.938080,677.057068 156.290833,597.813843 
	C151.575150,578.794067 148.876984,559.426880 147.452316,539.823059 
	C146.241074,523.156372 146.049820,506.474579 146.921921,489.894897 
	C148.960953,451.130341 157.541763,413.636597 172.164734,377.646820 
	C207.708313,290.167694 268.113312,225.838989 353.128906,184.865509 
	C387.640747,168.232407 424.052979,157.564041 462.112122,152.467163 
	C487.437256,149.075638 512.848267,147.947052 538.252502,149.844269 
	C610.627258,155.249298 676.790039,178.398071 735.022827,222.088821 
	C807.606506,276.546783 853.379028,348.471313 872.409119,437.292755 
	C876.168762,454.840607 878.402405,472.550751 879.471252,490.496063 
	C884.833130,580.524536 860.346008,661.708130 806.355835,733.606934 
	C759.378967,796.166199 698.078308,839.270264 623.048523,863.249695 
M278.349396,390.499939 
	C278.347931,454.491638 278.346680,518.483337 278.344940,582.475037 
	C278.343781,625.971252 278.354492,669.467468 278.315002,712.963684 
	C278.312073,716.202148 278.214569,718.780945 282.842651,718.723938 
	C299.505371,718.518860 316.172760,718.559387 332.836792,718.697815 
	C336.641724,718.729492 337.939056,717.167236 337.661377,713.630737 
	C337.544342,712.140320 337.650055,710.632629 337.650055,709.132751 
	C337.650635,654.470825 337.649414,599.808960 337.652283,545.147034 
	C337.652679,537.658691 337.661957,537.652710 345.344574,537.647827 
	C355.510345,537.641357 365.686768,537.936096 375.838989,537.565063 
	C386.437653,537.177673 393.719604,541.980469 398.502228,550.930603 
	C401.399078,556.351562 403.995728,561.969299 406.269531,567.680847 
	C420.607880,603.696716 434.549072,639.873169 449.179657,675.769104 
	C456.931580,694.788330 468.694031,710.401245 490.305511,715.236694 
	C499.543762,717.303711 508.887207,718.715149 518.427124,718.674011 
	C541.424683,718.574890 564.423035,718.647766 587.421021,718.640015 
	C597.514160,718.636597 596.757507,719.498108 596.762756,709.078064 
	C596.791565,651.749817 596.839539,594.421387 596.699707,537.093506 
	C596.687561,532.093445 598.133118,530.498901 603.221802,530.542786 
	C629.717529,530.771240 656.216309,530.652954 682.713989,530.648193 
	C690.322388,530.646851 690.333008,530.635864 690.333801,538.188416 
	C690.339600,596.350037 690.382935,654.511658 690.261719,712.673035 
	C690.252319,717.173340 691.449707,718.827148 696.166626,718.744751 
	C711.160767,718.482788 726.162292,718.646851 741.161011,718.647034 
	C749.646790,718.647156 749.651062,718.647888 749.651123,710.362732 
	C749.651733,579.374146 749.651184,448.385529 749.650513,317.396942 
	C749.650513,316.063751 749.552856,314.723297 749.657776,313.398651 
	C750.014587,308.892578 748.063904,307.240540 743.500061,307.302399 
	C728.504150,307.505585 713.503723,307.369598 698.505066,307.382324 
	C690.389771,307.389191 690.343994,307.447144 690.344543,315.359955 
	C690.347961,365.188934 690.291260,415.018158 690.453613,464.846619 
	C690.469849,469.813049 689.103088,471.436401 683.996277,471.393585 
	C657.500854,471.171417 631.002441,471.311676 604.505066,471.315430 
	C596.785583,471.316498 596.790039,471.301025 596.789734,463.508026 
	C596.787903,414.678986 596.785461,365.849976 596.779175,317.020935 
	C596.777954,307.528107 596.637695,307.388428 587.403748,307.385345 
	C573.404968,307.380676 559.406189,307.380280 545.407410,307.382294 
	C537.251770,307.383453 537.251892,307.387177 537.252258,315.602600 
	C537.256836,433.092285 537.261902,550.581970 537.260803,668.071655 
	C537.260803,669.903320 537.302063,671.747314 537.114319,673.563782 
	C536.843933,676.180054 535.476624,677.315796 532.676147,676.824097 
	C527.035706,675.833923 521.759216,674.209045 517.113464,670.604858 
	C509.241760,664.498108 505.247528,655.872375 501.695007,647.070190 
	C492.853851,625.164246 484.365540,603.116211 475.618378,581.171936 
	C469.024963,564.630798 462.865967,547.871277 453.614838,532.544067 
	C449.489532,525.709229 449.361145,525.233276 456.384796,521.699524 
	C481.935425,508.844391 498.677094,488.747437 506.187347,461.130219 
	C511.113495,443.015472 512.943481,424.651581 510.810120,405.863739 
	C506.867523,371.142059 491.908600,343.130829 461.961243,324.052765 
	C447.131897,314.605713 430.999146,307.836426 413.372345,307.588226 
	C370.551208,306.985321 327.715881,307.373138 284.886292,307.400208 
	C278.823730,307.404053 278.366302,307.930481 278.362213,314.006500 
	C278.345276,339.170959 278.352142,364.335449 278.349396,390.499939 
z"/>
<path fill="#000000" opacity="1.000000" stroke="none" 
	d="
M337.692139,379.015320 
	C337.715271,366.646820 337.720093,366.433746 349.549957,366.701477 
	C364.376099,367.036957 379.153564,365.678802 393.961243,365.783997 
	C401.605804,365.838287 409.200256,366.705322 416.612518,368.741882 
	C436.957764,374.331909 447.371765,388.786041 451.180573,408.526001 
	C453.263458,419.321045 453.221802,430.283234 450.464355,441.135406 
	C445.889496,459.140045 433.707550,469.373627 416.567810,474.289795 
	C406.319244,477.229340 395.699829,478.242004 385.032471,478.289337 
	C371.213135,478.350616 357.391052,478.155243 343.574951,478.373230 
	C339.070831,478.444305 337.532257,477.067230 337.560883,472.419525 
	C337.751556,441.451263 337.678925,410.481354 337.692139,379.015320 
z"/>
</svg>